<svg width="259" height="37" viewBox="0 0 259 37" fill="none" xmlns="http://www.w3.org/2000/svg">
<path d="M15.0031 28.4976H30.0017C34.142 28.4976 37.5011 25.1385 37.5011 20.9983H40.0009C45.516 20.9983 50 16.5143 50 10.9991C50 5.48398 45.516 1 40.0009 1H9.37855C8.33958 1 7.50371 1.83586 7.50371 2.87484V20.9983C7.50371 25.1385 10.8628 28.4976 15.0031 28.4976ZM40.0009 5.99956C42.7584 5.99956 45.0004 8.24155 45.0004 10.9991C45.0004 13.7567 42.7584 15.9987 40.0009 15.9987H37.5011V5.99956H40.0009ZM43.7271 35.9969H3.77748C0.0590508 35.9969 -0.987733 30.9974 0.965222 30.9974H46.5316C48.4845 30.9974 47.4533 35.9969 43.7271 35.9969Z" fill="#00913A"/>
<path d="M98.75 22.7012C98.75 23.5703 98.584 24.3857 98.252 25.1475C97.9199 25.9092 97.4658 26.5781 96.8896 27.1543C96.3232 27.7207 95.6592 28.1699 94.8975 28.502C94.1357 28.834 93.3203 29 92.4512 29H81.9482V7.99414H92.4512C93.3203 7.99414 94.1357 8.16016 94.8975 8.49219C95.6592 8.82422 96.3232 9.27832 96.8896 9.85449C97.4658 10.4209 97.9199 11.085 98.252 11.8467C98.584 12.6084 98.75 13.4238 98.75 14.293C98.75 14.6836 98.6963 15.084 98.5889 15.4941C98.4814 15.9043 98.3301 16.2998 98.1348 16.6807C97.9395 17.0615 97.7051 17.4082 97.4316 17.7207C97.1582 18.0332 96.8555 18.292 96.5234 18.4971C96.8652 18.6826 97.1729 18.9365 97.4463 19.2588C97.7197 19.5713 97.9541 19.918 98.1494 20.2988C98.3447 20.6797 98.4912 21.0801 98.5889 21.5C98.6963 21.9102 98.75 22.3105 98.75 22.7012ZM86.1523 24.7959H92.4512C92.7441 24.7959 93.0176 24.7422 93.2715 24.6348C93.5254 24.5273 93.7451 24.3809 93.9307 24.1953C94.126 24 94.2773 23.7754 94.3848 23.5215C94.4922 23.2676 94.5459 22.9941 94.5459 22.7012C94.5459 22.4082 94.4922 22.1348 94.3848 21.8809C94.2773 21.627 94.126 21.4072 93.9307 21.2217C93.7451 21.0264 93.5254 20.875 93.2715 20.7676C93.0176 20.6602 92.7441 20.6064 92.4512 20.6064H86.1523V24.7959ZM86.1523 16.4023H92.4512C92.7441 16.4023 93.0176 16.3486 93.2715 16.2412C93.5254 16.1338 93.7451 15.9873 93.9307 15.8018C94.126 15.6064 94.2773 15.3818 94.3848 15.1279C94.4922 14.8643 94.5459 14.5859 94.5459 14.293C94.5459 14 94.4922 13.7266 94.3848 13.4727C94.2773 13.2188 94.126 12.999 93.9307 12.8135C93.7451 12.6182 93.5254 12.4668 93.2715 12.3594C93.0176 12.252 92.7441 12.1982 92.4512 12.1982H86.1523V16.4023ZM116.665 21.0166C116.665 22.1885 116.455 23.2822 116.035 24.2979C115.615 25.3037 115.044 26.1777 114.321 26.9199C113.599 27.6523 112.749 28.2334 111.772 28.6631C110.806 29.083 109.766 29.293 108.652 29.293C107.549 29.293 106.509 29.083 105.532 28.6631C104.565 28.2334 103.716 27.6523 102.983 26.9199C102.261 26.1777 101.689 25.3037 101.27 24.2979C100.85 23.2822 100.64 22.1885 100.64 21.0166C100.64 19.8252 100.85 18.7217 101.27 17.7061C101.689 16.6904 102.261 15.8164 102.983 15.084C103.716 14.3418 104.565 13.7607 105.532 13.3408C106.509 12.9209 107.549 12.7109 108.652 12.7109C109.766 12.7109 110.806 12.9111 111.772 13.3115C112.749 13.7021 113.599 14.2637 114.321 14.9961C115.044 15.7188 115.615 16.5928 116.035 17.6182C116.455 18.6338 116.665 19.7666 116.665 21.0166ZM112.637 21.0166C112.637 20.3721 112.529 19.791 112.314 19.2734C112.109 18.7461 111.826 18.2969 111.465 17.9258C111.104 17.5449 110.679 17.2568 110.19 17.0615C109.712 16.8564 109.199 16.7539 108.652 16.7539C108.105 16.7539 107.588 16.8564 107.1 17.0615C106.621 17.2568 106.201 17.5449 105.84 17.9258C105.488 18.2969 105.21 18.7461 105.005 19.2734C104.8 19.791 104.697 20.3721 104.697 21.0166C104.697 21.6221 104.8 22.1836 105.005 22.7012C105.21 23.2188 105.488 23.668 105.84 24.0488C106.201 24.4297 106.621 24.7324 107.1 24.957C107.588 25.1719 108.105 25.2793 108.652 25.2793C109.199 25.2793 109.712 25.1768 110.19 24.9717C110.679 24.7666 111.104 24.4785 111.465 24.1074C111.826 23.7363 112.109 23.2871 112.314 22.7598C112.529 22.2324 112.637 21.6514 112.637 21.0166ZM134.038 21.0166C134.038 22.1885 133.828 23.2822 133.408 24.2979C132.988 25.3037 132.417 26.1777 131.694 26.9199C130.972 27.6523 130.122 28.2334 129.146 28.6631C128.179 29.083 127.139 29.293 126.025 29.293C124.922 29.293 123.882 29.083 122.905 28.6631C121.938 28.2334 121.089 27.6523 120.356 26.9199C119.634 26.1777 119.062 25.3037 118.643 24.2979C118.223 23.2822 118.013 22.1885 118.013 21.0166C118.013 19.8252 118.223 18.7217 118.643 17.7061C119.062 16.6904 119.634 15.8164 120.356 15.084C121.089 14.3418 121.938 13.7607 122.905 13.3408C123.882 12.9209 124.922 12.7109 126.025 12.7109C127.139 12.7109 128.179 12.9111 129.146 13.3115C130.122 13.7021 130.972 14.2637 131.694 14.9961C132.417 15.7188 132.988 16.5928 133.408 17.6182C133.828 18.6338 134.038 19.7666 134.038 21.0166ZM130.01 21.0166C130.01 20.3721 129.902 19.791 129.688 19.2734C129.482 18.7461 129.199 18.2969 128.838 17.9258C128.477 17.5449 128.052 17.2568 127.563 17.0615C127.085 16.8564 126.572 16.7539 126.025 16.7539C125.479 16.7539 124.961 16.8564 124.473 17.0615C123.994 17.2568 123.574 17.5449 123.213 17.9258C122.861 18.2969 122.583 18.7461 122.378 19.2734C122.173 19.791 122.07 20.3721 122.07 21.0166C122.07 21.6221 122.173 22.1836 122.378 22.7012C122.583 23.2188 122.861 23.668 123.213 24.0488C123.574 24.4297 123.994 24.7324 124.473 24.957C124.961 25.1719 125.479 25.2793 126.025 25.2793C126.572 25.2793 127.085 25.1768 127.563 24.9717C128.052 24.7666 128.477 24.4785 128.838 24.1074C129.199 23.7363 129.482 23.2871 129.688 22.7598C129.902 22.2324 130.01 21.6514 130.01 21.0166ZM140.278 29H136.25V7.07129H140.278V20.8994L146.24 13.3408H150.84L145.64 19.874L150.84 29H146.24L143.062 23.3018L140.278 26.9932V29ZM157.139 9.04883C157.139 9.41992 157.065 9.7666 156.919 10.0889C156.782 10.4111 156.592 10.6943 156.348 10.9385C156.104 11.1729 155.815 11.3633 155.483 11.5098C155.161 11.6465 154.814 11.7148 154.443 11.7148C154.072 11.7148 153.721 11.6465 153.389 11.5098C153.066 11.3633 152.783 11.1729 152.539 10.9385C152.305 10.6943 152.114 10.4111 151.968 10.0889C151.831 9.7666 151.763 9.41992 151.763 9.04883C151.763 8.6875 151.831 8.3457 151.968 8.02344C152.114 7.69141 152.305 7.4082 152.539 7.17383C152.783 6.92969 153.066 6.73926 153.389 6.60254C153.721 6.45605 154.072 6.38281 154.443 6.38281C154.814 6.38281 155.161 6.45605 155.483 6.60254C155.815 6.73926 156.104 6.92969 156.348 7.17383C156.592 7.4082 156.782 7.69141 156.919 8.02344C157.065 8.3457 157.139 8.6875 157.139 9.04883ZM156.45 29H152.422V13.3115H156.45V29ZM163.511 29H159.512V13.3115H160.479L161.797 14.835C162.441 14.249 163.169 13.7998 163.979 13.4873C164.8 13.165 165.654 13.0039 166.543 13.0039C167.5 13.0039 168.403 13.1895 169.253 13.5605C170.103 13.9219 170.845 14.4248 171.479 15.0693C172.114 15.7041 172.612 16.4512 172.974 17.3105C173.345 18.1602 173.53 19.0684 173.53 20.0352V29H169.531V20.0352C169.531 19.625 169.453 19.2393 169.297 18.8779C169.141 18.5068 168.926 18.1846 168.652 17.9111C168.379 17.6377 168.062 17.4229 167.7 17.2666C167.339 17.1104 166.953 17.0322 166.543 17.0322C166.123 17.0322 165.728 17.1104 165.356 17.2666C164.985 17.4229 164.663 17.6377 164.39 17.9111C164.116 18.1846 163.901 18.5068 163.745 18.8779C163.589 19.2393 163.511 19.625 163.511 20.0352V29ZM187.549 21.0166C187.549 20.4697 187.441 19.9424 187.227 19.4346C187.021 18.917 186.738 18.4629 186.377 18.0723C186.016 17.6719 185.591 17.3545 185.103 17.1201C184.624 16.876 184.111 16.7539 183.564 16.7539C183.018 16.7539 182.5 16.8467 182.012 17.0322C181.533 17.2178 181.113 17.4912 180.752 17.8525C180.4 18.2139 180.122 18.6631 179.917 19.2002C179.712 19.7275 179.609 20.333 179.609 21.0166C179.609 21.6709 179.712 22.2617 179.917 22.7891C180.122 23.3066 180.4 23.751 180.752 24.1221C181.113 24.4932 181.533 24.7812 182.012 24.9863C182.5 25.1816 183.018 25.2793 183.564 25.2793C184.111 25.2793 184.624 25.1621 185.103 24.9277C185.591 24.6836 186.016 24.3662 186.377 23.9756C186.738 23.5752 187.021 23.1211 187.227 22.6133C187.441 22.0957 187.549 21.5635 187.549 21.0166ZM191.577 27.0225C191.577 28.126 191.367 29.1611 190.947 30.1279C190.527 31.0947 189.951 31.9395 189.219 32.6621C188.496 33.3848 187.646 33.9561 186.67 34.376C185.703 34.7959 184.668 35.0059 183.564 35.0059L181.558 34.9766V30.9775L183.535 31.0068C184.16 31.0068 184.692 30.9238 185.132 30.7578C185.571 30.6016 185.942 30.3818 186.245 30.0986C186.548 29.8252 186.787 29.5078 186.963 29.1465C187.148 28.7852 187.295 28.4043 187.402 28.0039C187.246 28.2578 187.021 28.4678 186.729 28.6338C186.436 28.79 186.108 28.917 185.747 29.0146C185.396 29.1221 185.024 29.1953 184.634 29.2344C184.253 29.2734 183.896 29.293 183.564 29.293C182.461 29.293 181.421 29.1025 180.444 28.7217C179.478 28.3408 178.628 27.7988 177.896 27.0957C177.173 26.3828 176.602 25.5137 176.182 24.4883C175.762 23.4629 175.552 22.3057 175.552 21.0166C175.552 19.835 175.762 18.7363 176.182 17.7207C176.602 16.7051 177.173 15.8262 177.896 15.084C178.628 14.3418 179.478 13.7607 180.444 13.3408C181.421 12.9209 182.461 12.7109 183.564 12.7109C184.072 12.7109 184.575 12.7744 185.073 12.9014C185.571 13.0283 186.055 13.2041 186.523 13.4287C186.992 13.6533 187.437 13.917 187.856 14.2197C188.286 14.5225 188.687 14.8496 189.058 15.2012L190.61 13.3408H191.577V27.0225ZM215.835 20.6064V16.4023C215.835 15.8262 215.723 15.2842 215.498 14.7764C215.283 14.2588 214.985 13.8096 214.604 13.4287C214.224 13.0479 213.774 12.75 213.257 12.5352C212.749 12.3105 212.207 12.1982 211.631 12.1982C211.055 12.1982 210.508 12.3105 209.99 12.5352C209.482 12.75 209.038 13.0479 208.657 13.4287C208.276 13.8096 207.974 14.2588 207.749 14.7764C207.534 15.2842 207.427 15.8262 207.427 16.4023V20.6064H215.835ZM220.039 29H215.835V24.7959H207.427V29H203.237V16.4023C203.237 15.2402 203.457 14.1514 203.896 13.1357C204.336 12.1104 204.932 11.2168 205.684 10.4551C206.445 9.69336 207.334 9.09277 208.35 8.65332C209.375 8.21387 210.469 7.99414 211.631 7.99414C212.793 7.99414 213.882 8.21387 214.897 8.65332C215.923 9.09277 216.816 9.69336 217.578 10.4551C218.34 11.2168 218.94 12.1104 219.38 13.1357C219.819 14.1514 220.039 15.2402 220.039 16.4023V29ZM227.29 34.9766H223.262V13.3115H224.229L225.825 15.2012C226.187 14.8594 226.582 14.5371 227.012 14.2344C227.441 13.9316 227.886 13.6729 228.345 13.458C228.813 13.2334 229.297 13.0576 229.795 12.9307C230.293 12.8037 230.796 12.7402 231.304 12.7402C232.407 12.7402 233.442 12.9404 234.409 13.3408C235.386 13.7314 236.235 14.2881 236.958 15.0107C237.69 15.7334 238.267 16.6074 238.687 17.6328C239.106 18.6484 239.316 19.7764 239.316 21.0166C239.316 22.3057 239.106 23.4678 238.687 24.5029C238.267 25.5283 237.69 26.4023 236.958 27.125C236.235 27.8379 235.386 28.3848 234.409 28.7656C233.442 29.1465 232.407 29.3369 231.304 29.3369C230.952 29.3369 230.601 29.2979 230.249 29.2197C229.907 29.1416 229.565 29.0391 229.224 28.9121C228.892 28.7754 228.56 28.624 228.228 28.458C227.905 28.292 227.593 28.1211 227.29 27.9453V34.9766ZM235.303 21.0166C235.303 20.3525 235.195 19.7568 234.98 19.2295C234.775 18.7021 234.492 18.2578 234.131 17.8965C233.77 17.5254 233.345 17.2422 232.856 17.0469C232.368 16.8516 231.851 16.7539 231.304 16.7539C230.757 16.7539 230.239 16.8516 229.751 17.0469C229.272 17.2422 228.853 17.5254 228.491 17.8965C228.13 18.2578 227.842 18.7021 227.627 19.2295C227.422 19.7568 227.319 20.3525 227.319 21.0166C227.319 21.6514 227.422 22.2324 227.627 22.7598C227.842 23.2871 228.13 23.7363 228.491 24.1074C228.853 24.4785 229.272 24.7666 229.751 24.9717C230.239 25.1768 230.757 25.2793 231.304 25.2793C231.851 25.2793 232.368 25.1768 232.856 24.9717C233.345 24.7666 233.77 24.4785 234.131 24.1074C234.492 23.7363 234.775 23.2871 234.98 22.7598C235.195 22.2324 235.303 21.6514 235.303 21.0166ZM245.571 34.9766H241.543V13.3115H242.51L244.106 15.2012C244.468 14.8594 244.863 14.5371 245.293 14.2344C245.723 13.9316 246.167 13.6729 246.626 13.458C247.095 13.2334 247.578 13.0576 248.076 12.9307C248.574 12.8037 249.077 12.7402 249.585 12.7402C250.688 12.7402 251.724 12.9404 252.69 13.3408C253.667 13.7314 254.517 14.2881 255.239 15.0107C255.972 15.7334 256.548 16.6074 256.968 17.6328C257.388 18.6484 257.598 19.7764 257.598 21.0166C257.598 22.3057 257.388 23.4678 256.968 24.5029C256.548 25.5283 255.972 26.4023 255.239 27.125C254.517 27.8379 253.667 28.3848 252.69 28.7656C251.724 29.1465 250.688 29.3369 249.585 29.3369C249.233 29.3369 248.882 29.2979 248.53 29.2197C248.188 29.1416 247.847 29.0391 247.505 28.9121C247.173 28.7754 246.841 28.624 246.509 28.458C246.187 28.292 245.874 28.1211 245.571 27.9453V34.9766ZM253.584 21.0166C253.584 20.3525 253.477 19.7568 253.262 19.2295C253.057 18.7021 252.773 18.2578 252.412 17.8965C252.051 17.5254 251.626 17.2422 251.138 17.0469C250.649 16.8516 250.132 16.7539 249.585 16.7539C249.038 16.7539 248.521 16.8516 248.032 17.0469C247.554 17.2422 247.134 17.5254 246.772 17.8965C246.411 18.2578 246.123 18.7021 245.908 19.2295C245.703 19.7568 245.601 20.3525 245.601 21.0166C245.601 21.6514 245.703 22.2324 245.908 22.7598C246.123 23.2871 246.411 23.7363 246.772 24.1074C247.134 24.4785 247.554 24.7666 248.032 24.9717C248.521 25.1768 249.038 25.2793 249.585 25.2793C250.132 25.2793 250.649 25.1768 251.138 24.9717C251.626 24.7666 252.051 24.4785 252.412 24.1074C252.773 23.7363 253.057 23.2871 253.262 22.7598C253.477 22.2324 253.584 21.6514 253.584 21.0166Z" fill="#00913A"/>
</svg>
